<mxfile host="app.diagrams.net" modified="2023-06-01T00:45:30.557Z" agent="Mozilla/5.0 (Windows NT 10.0; Win64; x64) AppleWebKit/537.36 (KHTML, like Gecko) Chrome/113.0.0.0 Safari/537.36" etag="qdfNYqm72HGet3-T83Kk" version="21.3.6" type="device">
  <diagram name="페이지-1" id="BtugIte1vhd7Jhjultr5">
    <mxGraphModel dx="794" dy="424" grid="1" gridSize="10" guides="1" tooltips="1" connect="1" arrows="1" fold="1" page="1" pageScale="1" pageWidth="4681" pageHeight="3300" math="0" shadow="0">
      <root>
        <mxCell id="0" />
        <mxCell id="1" parent="0" />
        <mxCell id="EaXTGH-u8oa0BhY2DPJO-4" style="rounded=0;orthogonalLoop=1;jettySize=auto;html=1;entryX=0;entryY=0.5;entryDx=0;entryDy=0;" parent="1" source="EaXTGH-u8oa0BhY2DPJO-1" target="EaXTGH-u8oa0BhY2DPJO-3" edge="1">
          <mxGeometry relative="1" as="geometry" />
        </mxCell>
        <mxCell id="EaXTGH-u8oa0BhY2DPJO-1" value="유저" style="shape=umlActor;verticalLabelPosition=bottom;verticalAlign=top;html=1;outlineConnect=0;" parent="1" vertex="1">
          <mxGeometry x="70" y="50" width="70" height="110" as="geometry" />
        </mxCell>
        <mxCell id="EaXTGH-u8oa0BhY2DPJO-8" style="rounded=0;orthogonalLoop=1;jettySize=auto;html=1;" parent="1" source="EaXTGH-u8oa0BhY2DPJO-3" target="EaXTGH-u8oa0BhY2DPJO-5" edge="1">
          <mxGeometry relative="1" as="geometry" />
        </mxCell>
        <mxCell id="EaXTGH-u8oa0BhY2DPJO-9" style="rounded=0;orthogonalLoop=1;jettySize=auto;html=1;entryX=0.443;entryY=0.028;entryDx=0;entryDy=0;entryPerimeter=0;" parent="1" source="EaXTGH-u8oa0BhY2DPJO-3" target="EaXTGH-u8oa0BhY2DPJO-6" edge="1">
          <mxGeometry relative="1" as="geometry" />
        </mxCell>
        <mxCell id="EaXTGH-u8oa0BhY2DPJO-11" style="rounded=0;orthogonalLoop=1;jettySize=auto;html=1;" parent="1" source="EaXTGH-u8oa0BhY2DPJO-3" target="EaXTGH-u8oa0BhY2DPJO-7" edge="1">
          <mxGeometry relative="1" as="geometry" />
        </mxCell>
        <mxCell id="EaXTGH-u8oa0BhY2DPJO-21" style="edgeStyle=orthogonalEdgeStyle;rounded=0;orthogonalLoop=1;jettySize=auto;html=1;entryX=0;entryY=0.5;entryDx=0;entryDy=0;" parent="1" source="EaXTGH-u8oa0BhY2DPJO-3" target="EaXTGH-u8oa0BhY2DPJO-20" edge="1">
          <mxGeometry relative="1" as="geometry" />
        </mxCell>
        <mxCell id="EaXTGH-u8oa0BhY2DPJO-3" value="로그인하기" style="ellipse;whiteSpace=wrap;html=1;" parent="1" vertex="1">
          <mxGeometry x="260" y="60" width="140" height="60" as="geometry" />
        </mxCell>
        <mxCell id="EaXTGH-u8oa0BhY2DPJO-15" style="rounded=0;orthogonalLoop=1;jettySize=auto;html=1;entryX=0.5;entryY=0;entryDx=0;entryDy=0;" parent="1" source="EaXTGH-u8oa0BhY2DPJO-5" target="EaXTGH-u8oa0BhY2DPJO-13" edge="1">
          <mxGeometry relative="1" as="geometry" />
        </mxCell>
        <mxCell id="EaXTGH-u8oa0BhY2DPJO-5" value="회원가입하기" style="ellipse;whiteSpace=wrap;html=1;" parent="1" vertex="1">
          <mxGeometry x="115" y="200" width="140" height="60" as="geometry" />
        </mxCell>
        <mxCell id="EaXTGH-u8oa0BhY2DPJO-10" style="rounded=0;orthogonalLoop=1;jettySize=auto;html=1;entryX=0.5;entryY=0;entryDx=0;entryDy=0;exitX=0.5;exitY=1;exitDx=0;exitDy=0;" parent="1" source="EaXTGH-u8oa0BhY2DPJO-6" target="EaXTGH-u8oa0BhY2DPJO-7" edge="1">
          <mxGeometry relative="1" as="geometry" />
        </mxCell>
        <mxCell id="EaXTGH-u8oa0BhY2DPJO-23" style="edgeStyle=orthogonalEdgeStyle;rounded=0;orthogonalLoop=1;jettySize=auto;html=1;" parent="1" source="EaXTGH-u8oa0BhY2DPJO-6" edge="1">
          <mxGeometry relative="1" as="geometry">
            <mxPoint x="640" y="180" as="targetPoint" />
          </mxGeometry>
        </mxCell>
        <mxCell id="EaXTGH-u8oa0BhY2DPJO-6" value="아이디찾기" style="ellipse;whiteSpace=wrap;html=1;" parent="1" vertex="1">
          <mxGeometry x="350" y="170" width="140" height="60" as="geometry" />
        </mxCell>
        <mxCell id="EaXTGH-u8oa0BhY2DPJO-24" style="rounded=0;orthogonalLoop=1;jettySize=auto;html=1;entryX=0.5;entryY=1;entryDx=0;entryDy=0;exitX=1;exitY=0.5;exitDx=0;exitDy=0;" parent="1" source="EaXTGH-u8oa0BhY2DPJO-7" target="EaXTGH-u8oa0BhY2DPJO-18" edge="1">
          <mxGeometry relative="1" as="geometry" />
        </mxCell>
        <mxCell id="EaXTGH-u8oa0BhY2DPJO-7" value="비빌번호찾기" style="ellipse;whiteSpace=wrap;html=1;" parent="1" vertex="1">
          <mxGeometry x="250" y="290" width="140" height="60" as="geometry" />
        </mxCell>
        <mxCell id="EaXTGH-u8oa0BhY2DPJO-17" style="edgeStyle=orthogonalEdgeStyle;rounded=0;orthogonalLoop=1;jettySize=auto;html=1;entryX=0;entryY=0.5;entryDx=0;entryDy=0;" parent="1" source="EaXTGH-u8oa0BhY2DPJO-13" target="EaXTGH-u8oa0BhY2DPJO-16" edge="1">
          <mxGeometry relative="1" as="geometry" />
        </mxCell>
        <mxCell id="EaXTGH-u8oa0BhY2DPJO-13" value="유효성검사하기" style="ellipse;whiteSpace=wrap;html=1;" parent="1" vertex="1">
          <mxGeometry x="120" y="400" width="130" height="60" as="geometry" />
        </mxCell>
        <mxCell id="EaXTGH-u8oa0BhY2DPJO-14" value="&lt;h1&gt;유효성검사&lt;/h1&gt;&lt;p&gt;이메일 중복검사&lt;/p&gt;&lt;p&gt;이메일 형식검사&lt;/p&gt;&lt;p&gt;비밀번호 적합성 검사&lt;/p&gt;" style="text;html=1;strokeColor=none;fillColor=none;spacing=5;spacingTop=-20;whiteSpace=wrap;overflow=hidden;rounded=0;" parent="1" vertex="1">
          <mxGeometry x="120" y="470" width="190" height="120" as="geometry" />
        </mxCell>
        <mxCell id="EaXTGH-u8oa0BhY2DPJO-19" style="rounded=0;orthogonalLoop=1;jettySize=auto;html=1;entryX=0.5;entryY=1;entryDx=0;entryDy=0;" parent="1" source="EaXTGH-u8oa0BhY2DPJO-16" target="EaXTGH-u8oa0BhY2DPJO-18" edge="1">
          <mxGeometry relative="1" as="geometry" />
        </mxCell>
        <mxCell id="EaXTGH-u8oa0BhY2DPJO-16" value="회원정보 저장하기" style="ellipse;whiteSpace=wrap;html=1;" parent="1" vertex="1">
          <mxGeometry x="350" y="400" width="130" height="60" as="geometry" />
        </mxCell>
        <mxCell id="EaXTGH-u8oa0BhY2DPJO-18" value="회원정보 Table" style="shape=internalStorage;whiteSpace=wrap;html=1;backgroundOutline=1;" parent="1" vertex="1">
          <mxGeometry x="640" y="140" width="140" height="80" as="geometry" />
        </mxCell>
        <mxCell id="EaXTGH-u8oa0BhY2DPJO-22" style="edgeStyle=orthogonalEdgeStyle;rounded=0;orthogonalLoop=1;jettySize=auto;html=1;entryX=0.5;entryY=0;entryDx=0;entryDy=0;" parent="1" source="EaXTGH-u8oa0BhY2DPJO-20" target="EaXTGH-u8oa0BhY2DPJO-18" edge="1">
          <mxGeometry relative="1" as="geometry" />
        </mxCell>
        <mxCell id="EaXTGH-u8oa0BhY2DPJO-20" value="회원정보 조회&lt;br&gt;로그인 승인하기" style="ellipse;whiteSpace=wrap;html=1;" parent="1" vertex="1">
          <mxGeometry x="480" y="60" width="140" height="60" as="geometry" />
        </mxCell>
      </root>
    </mxGraphModel>
  </diagram>
</mxfile>
